<svg viewBox="0 0 300 200" xmlns="http://www.w3.org/2000/svg">
  <!-- Background -->
  <rect width="300" height="200" fill="#f0fdf4"/>
  
  <!-- Clean room outline -->
  <rect x="20" y="20" width="260" height="160" fill="#fefefe" stroke="#16a34a" stroke-width="2"/>
  
  <!-- Clean floor -->
  <rect x="20" y="140" width="260" height="40" fill="#f9f9f9"/>
  
  <!-- Sealed walls - no cracks -->
  <rect x="25" y="25" width="250" height="5" fill="#e5e7eb"/>
  <rect x="25" y="35" width="250" height="5" fill="#e5e7eb"/>
  
  <!-- Clean surfaces -->
  <rect x="120" y="30" width="60" height="15" fill="#d1d5db"/>
  
  <!-- Green checkmarks indicating cleanliness -->
  <circle cx="50" cy="80" r="15" fill="#16a34a" opacity="0.9"/>
  <path d="M45 80 L48 83 L55 76" stroke="white" stroke-width="2" fill="none"/>
  
  <circle cx="180" cy="90" r="15" fill="#16a34a" opacity="0.9"/>
  <path d="M175 90 L178 93 L185 86" stroke="white" stroke-width="2" fill="none"/>
  
  <circle cx="220" cy="60" r="15" fill="#16a34a" opacity="0.9"/>
  <path d="M215 60 L218 63 L225 56" stroke="white" stroke-width="2" fill="none"/>
  
  <!-- Protective barrier representation -->
  <rect x="15" y="15" width="270" height="170" fill="none" stroke="#16a34a" stroke-width="3" stroke-dasharray="10,5" opacity="0.6"/>
  
  <!-- Sparkle effects for cleanliness -->
  <g fill="#fbbf24" opacity="0.8">
    <path d="M70 50 L72 54 L76 52 L72 56 L70 60 L68 56 L64 52 L68 54 Z"/>
    <path d="M130 70 L131 72 L133 71 L131 74 L130 76 L129 74 L127 71 L129 72 Z"/>
    <path d="M240 100 L241 102 L243 101 L241 104 L240 106 L239 104 L237 101 L239 102 Z"/>
  </g>
  
  <!-- Title -->
  <text x="150" y="190" text-anchor="middle" font-family="Arial, sans-serif" font-size="14" font-weight="bold" fill="#16a34a">PEST-FREE ENVIRONMENT</text>
</svg>
