<svg width="200" height="200" viewBox="0 0 200 200" fill="none" xmlns="http://www.w3.org/2000/svg">
  <!-- Background circle -->
  <circle cx="100" cy="100" r="90" fill="#f3f4f6" stroke="#16a34a" stroke-width="3"/>
  
  <!-- Termite body segments -->
  <ellipse cx="100" cy="120" rx="15" ry="25" fill="#8b5a2b"/>
  <ellipse cx="100" cy="100" rx="12" ry="18" fill="#a0693d"/>
  <ellipse cx="100" cy="85" rx="10" ry="15" fill="#8b5a2b"/>
  
  <!-- Head -->
  <ellipse cx="100" cy="70" rx="8" ry="10" fill="#8b5a2b"/>
  
  <!-- Eyes -->
  <circle cx="96" cy="68" r="2" fill="#000000"/>
  <circle cx="104" cy="68" r="2" fill="#000000"/>
  
  <!-- Antennae -->
  <line x1="95" y1="62" x2="90" y2="50" stroke="#654321" stroke-width="2" stroke-linecap="round"/>
  <line x1="105" y1="62" x2="110" y2="50" stroke="#654321" stroke-width="2" stroke-linecap="round"/>
  <circle cx="90" cy="50" r="1.5" fill="#654321"/>
  <circle cx="110" cy="50" r="1.5" fill="#654321"/>
  
  <!-- Legs -->
  <line x1="88" y1="90" x2="75" y2="95" stroke="#654321" stroke-width="2"/>
  <line x1="112" y1="90" x2="125" y2="95" stroke="#654321" stroke-width="2"/>
  <line x1="88" y1="105" x2="75" y2="110" stroke="#654321" stroke-width="2"/>
  <line x1="112" y1="105" x2="125" y2="110" stroke="#654321" stroke-width="2"/>
  <line x1="88" y1="125" x2="75" y2="130" stroke="#654321" stroke-width="2"/>
  <line x1="112" y1="125" x2="125" y2="130" stroke="#654321" stroke-width="2"/>
  
  <!-- Wood damage effect -->
  <rect x="130" y="110" width="25" height="40" fill="#d4a574" rx="2"/>
  <line x1="135" y1="115" x2="150" y2="115" stroke="#8b5a2b" stroke-width="1"/>
  <line x1="135" y1="125" x2="148" y2="125" stroke="#8b5a2b" stroke-width="1"/>
  <line x1="135" y1="135" x2="152" y2="135" stroke="#8b5a2b" stroke-width="1"/>
  <line x1="135" y1="145" x2="149" y2="145" stroke="#8b5a2b" stroke-width="1"/>
  
  <!-- Red "X" for elimination -->
  <line x1="60" y1="60" x2="140" y2="140" stroke="#dc2626" stroke-width="4" stroke-linecap="round"/>
  <line x1="140" y1="60" x2="60" y2="140" stroke="#dc2626" stroke-width="4" stroke-linecap="round"/>
  
  <!-- Text -->
  <text x="100" y="180" font-family="Arial, sans-serif" font-size="14" font-weight="bold" fill="#16a34a" text-anchor="middle">
    TERMITE CONTROL
  </text>
</svg>
