<svg width="32" height="32" viewBox="0 0 32 32" fill="none" xmlns="http://www.w3.org/2000/svg">
  <!-- Shield shape background with better mobile contrast -->
  <path d="M16 2L26 6V14C26 20.5 21.5 26.5 16 30C10.5 26.5 6 20.5 6 14V6L16 2Z" fill="#16a34a" stroke="#ffffff" stroke-width="2"/>
  
  <!-- Inner highlight for better visibility -->
  <path d="M16 5L23 8V13C23 17.5 19.5 22 16 25C12.5 22 9 17.5 9 13V8L16 5Z" fill="#22c55e"/>
  
  <!-- Bug/pest icon inside with better contrast -->
  <ellipse cx="16" cy="14" rx="6" ry="4" fill="#ffffff" stroke="#16a34a" stroke-width="1"/>
  <circle cx="13" cy="12" r="1.5" fill="#16a34a"/>
  <circle cx="19" cy="12" r="1.5" fill="#16a34a"/>
  
  <!-- Antennae - thicker for mobile -->
  <line x1="13" y1="10" x2="12" y2="8" stroke="#16a34a" stroke-width="2" stroke-linecap="round"/>
  <line x1="19" y1="10" x2="20" y2="8" stroke="#16a34a" stroke-width="2" stroke-linecap="round"/>
  
  <!-- Body segments -->
  <ellipse cx="16" cy="18" rx="2" ry="2.5" fill="#16a34a"/>
  
  <!-- "X" to show elimination - more prominent for mobile -->
  <line x1="10" y1="10" x2="22" y2="18" stroke="#dc2626" stroke-width="3" stroke-linecap="round"/>
  <line x1="22" y1="10" x2="10" y2="18" stroke="#dc2626" stroke-width="3" stroke-linecap="round"/>
</svg>