<svg width="40" height="40" viewBox="0 0 40 40" fill="none" xmlns="http://www.w3.org/2000/svg">
  <!-- Shield shape background with better contrast -->
  <path d="M20 3L30 7V17C30 24 25 30.5 20 34C15 30.5 10 24 10 17V7L20 3Z" fill="#16a34a" stroke="#ffffff" stroke-width="2"/>
  
  <!-- Inner shield highlight -->
  <path d="M20 6L27 9V16C27 21.5 23.5 26.5 20 29C16.5 26.5 13 21.5 13 16V9L20 6Z" fill="#22c55e"/>
  
  <!-- Bug/pest icon inside with better visibility -->
  <ellipse cx="20" cy="17" rx="7" ry="5" fill="#ffffff" stroke="#16a34a" stroke-width="1"/>
  <circle cx="17" cy="15" r="1.5" fill="#16a34a"/>
  <circle cx="23" cy="15" r="1.5" fill="#16a34a"/>
  
  <!-- Antennae -->
  <line x1="17" y1="12" x2="15" y2="9" stroke="#16a34a" stroke-width="2" stroke-linecap="round"/>
  <line x1="23" y1="12" x2="25" y2="9" stroke="#16a34a" stroke-width="2" stroke-linecap="round"/>
  
  <!-- Body segments -->
  <ellipse cx="20" cy="21" rx="2" ry="3" fill="#16a34a"/>
  
  <!-- "X" to show elimination - more prominent -->
  <line x1="12" y1="12" x2="28" y2="22" stroke="#dc2626" stroke-width="3" stroke-linecap="round"/>
  <line x1="28" y1="12" x2="12" y2="22" stroke="#dc2626" stroke-width="3" stroke-linecap="round"/>
  
  <!-- Additional mobile-friendly elements -->
  <circle cx="20" cy="17" r="12" fill="none" stroke="#ffffff" stroke-width="1" opacity="0.3"/>
</svg>
