<svg width="200" height="200" viewBox="0 0 200 200" fill="none" xmlns="http://www.w3.org/2000/svg">
  <!-- Background circle -->
  <circle cx="100" cy="100" r="90" fill="#f3f4f6" stroke="#16a34a" stroke-width="3"/>
  
  <!-- Rodent/mouse body -->
  <ellipse cx="100" cy="110" rx="35" ry="25" fill="#6b7280"/>
  
  <!-- Head -->
  <ellipse cx="100" cy="80" rx="20" ry="18" fill="#6b7280"/>
  
  <!-- Ears -->
  <ellipse cx="88" cy="68" rx="8" ry="12" fill="#6b7280"/>
  <ellipse cx="112" cy="68" rx="8" ry="12" fill="#6b7280"/>
  <ellipse cx="88" cy="68" rx="4" ry="6" fill="#ff9999"/>
  <ellipse cx="112" cy="68" rx="4" ry="6" fill="#ff9999"/>
  
  <!-- Eyes -->
  <circle cx="93" cy="78" r="3" fill="#000000"/>
  <circle cx="107" cy="78" r="3" fill="#000000"/>
  <circle cx="94" cy="77" r="1" fill="#ffffff"/>
  <circle cx="108" cy="77" r="1" fill="#ffffff"/>
  
  <!-- Nose -->
  <ellipse cx="100" cy="85" rx="2" ry="1" fill="#ff6b9d"/>
  
  <!-- Whiskers -->
  <line x1="75" y1="82" x2="88" y2="80" stroke="#000000" stroke-width="1"/>
  <line x1="75" y1="88" x2="88" y2="85" stroke="#000000" stroke-width="1"/>
  <line x1="112" y1="80" x2="125" y2="82" stroke="#000000" stroke-width="1"/>
  <line x1="112" y1="85" x2="125" y2="88" stroke="#000000" stroke-width="1"/>
  
  <!-- Tail -->
  <path d="M130 120 Q150 130 160 150" stroke="#6b7280" stroke-width="6" fill="none" stroke-linecap="round"/>
  
  <!-- Feet -->
  <ellipse cx="85" cy="130" rx="4" ry="6" fill="#6b7280"/>
  <ellipse cx="100" cy="132" rx="4" ry="6" fill="#6b7280"/>
  <ellipse cx="115" cy="130" rx="4" ry="6" fill="#6b7280"/>
  
  <!-- Red "X" for elimination -->
  <line x1="60" y1="60" x2="140" y2="140" stroke="#dc2626" stroke-width="4" stroke-linecap="round"/>
  <line x1="140" y1="60" x2="60" y2="140" stroke="#dc2626" stroke-width="4" stroke-linecap="round"/>
  
  <!-- Text -->
  <text x="100" y="180" font-family="Arial, sans-serif" font-size="14" font-weight="bold" fill="#16a34a" text-anchor="middle">
    RODENT CONTROL
  </text>
</svg>
